# AST/ASF file generated using VICON BodyLanguage
# -----------------------------------------------
:version 1.10
:name VICON
:units
  mass 1.0
  length 0.45
  angle deg
:documentation
   .ast/.asf automatically generated from VICON data using
   VICON BodyBuilder and BodyLanguage model FoxedUp or BRILLIANT.MOD
:root
   order TX TY TZ RX RY RZ
   axis XYZ
   position 0 0 0  
   orientation 0 0 0 
:bonedata
  begin
     id 1 
     name lhipjoint
     direction 0.645893 -0.654526 0.392961 
     length 2.38111 
     axis 0 0 0  XYZ
  end
  begin
     id 2 
     name lfemur
     direction 0.34202 -0.939693 0  
     length 6.6822  
     axis 0 0 20  XYZ
    dof rx ry rz
    limits (-160.0 20.0)
           (-70.0 70.0)
           (-60.0 70.0)
  end
  begin
     id 3 
     name ltibia
     direction 0.34202 -0.939693 0   
     length 6.93904   
     axis 0 0 20   XYZ
    dof rx
    limits (-10.0 170.0)
  end
  begin
     id 4 
     name lfoot
     direction 0.0694967 -0.190941 0.979138   
     length 2.13616   
     axis -90 7.62852e-016 20   XYZ
    dof rx rz
    limits (-45.0 90.0)
           (-70.0 20.0)
  end
  begin
     id 5 
     name ltoes
     direction 1.535e-011 -4.2202e-011 1   
     length 1.07536   
     axis -90 7.62852e-016 20   XYZ
    dof rx
    limits (-90.0 20.0)
  end
  begin
     id 6 
     name rhipjoint
     direction -0.700219 -0.612087 0.367481   
     length 2.54621  
     axis 0 0 0  XYZ 
  end
  begin
     id 7 
     name rfemur
     direction -0.34202 -0.939693 0   
     length 6.55353   
     axis 0 0 -20   XYZ
    dof rx ry rz
    limits (-160.0 20.0)
           (-70.0 70.0)
           (-70.0 60.0)
  end
  begin
     id 8 
     name rtibia
     direction -0.34202 -0.939693 0   
     length 6.8736   
     axis 0 0 -20   XYZ
    dof rx
    limits (-10.0 170.0)
 end
 begin
     id 9 
     name rfoot
     direction -0.0679995 -0.186827 0.980037   
     length 2.1218  
     axis -90 -7.62852e-016 -20   XYZ
    dof rx rz
    limits (-45.0 90.0)
           (-20.0 70.0)
  end
  begin
     id 10 
     name rtoes
     direction -1.53589e-011 -4.21772e-011 1   
     length 1.06864   
     axis -90 -7.62852e-016 -20   XYZ
    dof rx
    limits (-90.0 20.0)
  end
  begin
     id 11 
     name lowerback
     direction -0.0416607 0.996347 -0.0745409   
     length 2.12205   
     axis 0 0 0   XYZ
    dof rx ry rz
    limits (-20.0 45.0)
           (-30.0 30.0)
           (-30.0 30.0)
  end
  begin
     id 12 
     name upperback
     direction -0.000153993 0.999276 -0.0380568   
     length 2.12759   
     axis 0 0 0   XYZ
    dof rx ry rz
    limits (-20.0 45.0)
           (-30.0 30.0)
           (-30.0 30.0)
  end
  begin
     id 13 
     name thorax
     direction 0.0187671 0.999821 -0.00241421   
     length 2.13704   
     axis 0 0 0   XYZ
    dof rx ry rz
    limits (-20.0 45.0)
           (-30.0 30.0)
           (-30.0 30.0)
  end
  begin
     id 14 
     name lowerneck
     direction 0.0268157 0.964865 0.261374   
     length 1.65253   
     axis 0 0 0   XYZ
    dof rx ry rz
    limits (-20.0 45.0)
           (-30.0 30.0)
           (-30.0 30.0)
  end
  begin
     id 15 
     name upperneck
     direction 0.00263774 0.939908 -0.341418   
     length 1.72375   
     axis 0 0 0   XYZ
    dof rx ry rz
    limits (-20.0 45.0)
           (-30.0 30.0)
           (-30.0 30.0)
  end
  begin
     id 16
     name head
     direction -0.00526001 0.989001 -0.147818  
     length 1.74878  
     axis 0 0 0   XYZ
    dof rx ry rz
    limits (-20.0 45.0)
           (-30.0 30.0)
           (-30.0 30.0)
  end
  begin
     id 17 
     name lclavicle
     direction 0.881214 0.461162 -0.103884  
     length 3.25108  
     axis 0 0 0   XYZ
    dof ry rz
    limits (-20.0 10.0)
           (0.0 20.0)
  end
  begin
     id 18 
     name lhumerus
     direction 1 -4.4899e-011 3.38092e-027   
     length 4.87408   
     axis 180 -30 -90   XYZ
    dof rx ry rz
    limits (-60.0 90.0)
           (-90.0 90.0)
           (-90.0 90.0)
  end
  begin
     id 19
     name lradius
     direction 1 -4.48931e-011 9.96288e-027   
     length 2.76729   
     axis 180 -30 -90   XYZ
    dof rx
    limits (-10.0 170.0)
  end
  begin
     id 20
     name lwrist
     direction 1 -4.4896e-011 1.50617e-026   
     length 1.38364   
     axis -9.31234e-015 90 90   XYZ
    dof ry
    limits (-180.0 0.0)
 end
  begin
     id 21 
     name lhand
     direction 1 -4.49038e-011 3.01286e-026   
     length 0.98922   
     axis -1.92217e-014 90 90   XYZ
    dof rx rz
    limits (-90.0 90.0)
           (-45.0 45.0)
  end
  begin
     id 22 
     name lfingers
     direction 1 -4.49051e-011 6.02588e-026   
     length 0.797535   
     axis -3.84436e-014 90 90   XYZ
    dof rx
    limits (0.0 90.0)
  end
  begin
     id 23
     name lthumb
     direction 0.707107 -6.34901e-011 0.707107   
     length 1.14511   
     axis -90 45 2.19363e-014   XYZ
    dof rx rz
    limits (-45.0 45.0)
           (-45.0 45.0)
  end
  begin
     id 24 
     name rclavicle
     direction -0.893894 0.441652 -0.0767889   
     length 3.29361  
     axis 0 0 0   XYZ 
    dof ry rz
    limits (-10.0 20.0)
           (-20.0 0.0)
  end
  begin
     id 25 
     name rhumerus
     direction -1 -4.48945e-011 8.0491e-028  
     length 4.71404   
     axis 180 30 90   XYZ
    dof rx ry rz
    limits (-90.0 60.0)
           (-90.0 90.0)
           (-90.0 90.0)
  end
  begin
     id 26 
     name rradius
     direction -1 -4.48986e-011 9.27795e-027   
     length 2.83468   
     axis 180 30 90   XYZ
    dof rx
    limits (-10.0 170.0)
  end
  begin
     id 27 
     name rwrist
     direction -1 -4.49029e-011 1.5064e-026   
     length 1.41734   
     axis -9.31234e-015 -90 -90   XYZ
    dof ry
    limits (-180.0 0.0)
  end
  begin
     id 28
     name rhand
     direction -1 -4.48857e-011 3.01165e-026   
     length 0.868195   
     axis -1.92217e-014 -90 -90   XYZ
    dof rx rz
    limits (-90.0 90.0)
           (-45.0 45.0)
  end
  begin
     id 29
     name rfingers
     direction -1 -4.49048e-011 6.02585e-026   
     length 0.699961   
     axis -3.84436e-014 -90 -90   XYZ
    dof rx
    limits (0.0 90.0)
  end
  begin
     id 30
     name rthumb
     direction -0.707107 -6.34854e-011 0.707107   
     length 1.00501   
     axis -90 -45 -2.19363e-014   XYZ
    dof rx rz
    limits (-45.0 45.0)
           (-45.0 45.0)
  end
:hierarchy
  begin
    root lhipjoint rhipjoint lowerback
    lhipjoint lfemur
    lfemur ltibia
    ltibia lfoot
    lfoot ltoes
    rhipjoint rfemur
    rfemur rtibia
    rtibia rfoot
    rfoot rtoes
    lowerback upperback
    upperback thorax
    thorax lowerneck lclavicle rclavicle
    lowerneck upperneck
    upperneck head
    lclavicle lhumerus
    lhumerus lradius
    lradius lwrist
    lwrist lhand lthumb
    lhand lfingers
    rclavicle rhumerus
    rhumerus rradius
    rradius rwrist
    rwrist rhand rthumb
    rhand rfingers
  end

#!OML:ASF H:\ManfredObstacles\Project 1\Capture day 2\Session 1\male.ASF
:FULLY-SPECIFIED
:DEGREES
120
root 1.3689 16.5867 -20.9888 -169.987 2.11603 -184.86
lowerback -3.58544 -6.05973 -6.75489
upperback -0.747039 -7.77095 0.12354
thorax 2.13732 -3.90333 3.39398
lowerneck -29.6911 1.48968 6.7677
upperneck 46.1693 6.55755 -4.2079
head 29.0956 4.46879 -1.17741
rclavicle 9.95166e-014 2.10712e-014
rhumerus -77.9536 5.87642 -82.9818
rradius 97.9725
rwrist 1.86242
rhand -13.6351 -1.42617
rfingers 7.12502
rthumb 12.4809 -31.0335
lclavicle 9.95166e-014 2.10712e-014
lhumerus -47.2413 -26.8877 97.9294
lradius 110.227
lwrist -20.7644
lhand -15.6715 4.40405
lfingers 7.12502
lthumb 10.5171 34.1209
rfemur -48.685 -0.167941 17.0894
rtibia 56.0028
rfoot 7.69013 -23.7878
rtoes -18.3079
lfemur 9.59447 -3.08284 -28.4154
ltibia 16.8339
lfoot 29.2693 -2.07872
ltoes -8.94157
121
root 1.38561 16.6693 -21.4042 -169.494 2.08781 -184.523
lowerback -4.22473 -6.32687 -6.28659
upperback -0.956446 -8.11462 0.464659
thorax 2.29921 -4.07305 3.40014
lowerneck -29.5696 1.72843 6.95962
upperneck 46.1043 7.0935 -4.59035
head 29.1347 4.63764 -1.29303
rclavicle 1.79527e-015 1.26725e-014
rhumerus -78.5923 6.086 -82.3347
rradius 98.4237
rwrist 1.95507
rhand -13.4756 -1.21711
rfingers 7.12502
rthumb 12.6347 -30.815
lclavicle 1.79527e-015 1.26725e-014
lhumerus -47.9799 -27.4227 98.0617
lradius 110.853
lwrist -20.945
lhand -15.1208 3.92021
lfingers 7.12502
lthumb 11.0483 33.6094
rfemur -48.4962 0.439 17.1909
rtibia 51.2739
rfoot 8.9634 -22.999
rtoes -18.4343
lfemur 10.8258 -3.29054 -28.0098
ltibia 15.0964
lfoot 32.7305 -3.18711
ltoes -5.88238
122
root 1.40047 16.7425 -21.82 -169.014 1.999 -184.224
lowerback -4.87388 -6.58913 -5.81615
upperback -1.13665 -8.45267 0.779002
thorax 2.49003 -4.23884 3.37057
lowerneck -29.4987 1.95969 7.15298
upperneck 46.0379 7.58024 -4.92783
head 29.1966 4.79446 -1.39473
rclavicle -8.3238e-014 -2.17669e-014
rhumerus -79.1367 6.3083 -81.7154
rradius 98.8666
rwrist 2.03934
rhand -13.304 -1.05386
rfingers 7.12502
rthumb 12.8002 -30.6414
lclavicle -8.3238e-014 -2.17669e-014
lhumerus -48.6872 -27.9672 98.1619
lradius 111.459
lwrist -21.0193
lhand -14.5291 3.48277
lfingers 7.12502
lthumb 11.6189 33.1406
rfemur -48.1707 0.966842 17.2152
rtibia 46.5821
rfoot 10.2614 -21.886
rtoes -18.7346
lfemur 11.8257 -3.60693 -27.6769
ltibia 13.8482
lfoot 35.9562 -3.98508
ltoes -2.68401
123
root 1.41462 16.8049 -22.2354 -168.57 1.85638 -183.991
lowerback -5.51843 -6.83152 -5.37237
upperback -1.29293 -8.76461 1.04272
thorax 2.69406 -4.3899 3.30099
lowerneck -29.4513 2.16275 7.32905
upperneck 45.9664 7.97874 -5.20499
head 29.2387 4.92404 -1.48226
rclavicle 3.516e-015 8.44835e-015
rhumerus -79.627 6.48169 -81.1317
rradius 99.2924
rwrist 2.14476
rhand -13.1304 -0.919939
rfingers 7.12502
rthumb 12.9675 -30.497
lclavicle 3.516e-015 8.44835e-015
lhumerus -49.3827 -28.5296 98.2495
lradius 112.039
lwrist -20.9776
lhand -13.9035 3.05958
lfingers 7.12502
lthumb 12.2222 32.6825
rfemur -47.7263 1.42258 17.148
rtibia 42.0452
rfoot 11.4294 -20.6022
rtoes -19.2117
lfemur 12.5238 -4.02157 -27.4423
ltibia 13.2594
lfoot 38.7781 -4.51435
ltoes 0.241366
124
root 1.42869 16.8554 -22.6494 -168.194 1.6637 -183.851
lowerback -6.12825 -7.06129 -4.99245
upperback -1.39912 -9.06025 1.24099
thorax 2.92579 -4.53308 3.19746
lowerneck -29.4749 2.34855 7.48207
upperneck 45.8961 8.29492 -5.40394
head 29.2914 5.02602 -1.54061
rclavicle -9.98148e-014 6.06293e-015
rhumerus -80.0157 6.60394 -80.6119
rradius 99.6802
rwrist 2.26949
rhand -12.9295 -0.804754
rfingers 7.12502
rthumb 13.1612 -30.3694
lclavicle -9.98148e-014 6.06293e-015
lhumerus -50.0109 -29.0825 98.2723
lradius 112.583
lwrist -20.8573
lhand -13.3042 2.6538
lfingers 7.12502
lthumb 12.8 32.2414
rfemur -47.1753 1.81747 16.9688
rtibia 37.7992
rfoot 12.6037 -19.4456
rtoes -20.0749
lfemur 12.891 -4.52783 -27.3282
ltibia 13.4345
lfoot 41.0494 -4.75875
ltoes 2.6989
125
root 1.44445 16.892 -23.0619 -167.925 1.45697 -183.795
lowerback -6.67067 -7.25766 -4.68923
upperback -1.46077 -9.3122 1.36495
thorax 3.15953 -4.6548 3.06636
lowerneck -29.5065 2.51809 7.63531
upperneck 45.8075 8.52902 -5.55494
head 29.2905 5.10244 -1.59531
rclavicle 4.20927e-014 2.38542e-015
rhumerus -80.3477 6.65119 -80.1717
rradius 100.02
rwrist 2.39513
rhand -12.7227 -0.685094
rfingers 7.12502
rthumb 13.3605 -30.2367
lclavicle 4.20927e-014 2.38542e-015
lhumerus -50.617 -29.6161 98.2692
lradius 113.083
lwrist -20.6607
lhand -12.7507 2.24858
lfingers 7.12502
lthumb 13.3335 31.802
rfemur -46.5341 2.2085 16.6927
rtibia 33.9971
rfoot 13.8199 -18.6185
rtoes -21.4411
lfemur 12.9768 -5.05914 -27.3213
ltibia 14.3645
lfoot 42.599 -4.85253
ltoes 4.54235
126
root 1.46239 16.9138 -23.4723 -167.788 1.25336 -183.837
lowerback -7.1215 -7.41486 -4.49087
upperback -1.46815 -9.51092 1.40769
thorax 3.39518 -4.7517 2.92037
lowerneck -29.5847 2.64891 7.75747
upperneck 45.732 8.66068 -5.63274
head 29.2918 5.14566 -1.62926
rclavicle -9.54415e-014 6.36111e-015
rhumerus -80.5979 6.62177 -79.8202
rradius 100.274
rwrist 2.51687
rhand -12.5142 -0.524082
rfingers 7.12502
rthumb 13.5615 -30.0624
lclavicle -9.54415e-014 6.36111e-015
lhumerus -51.1982 -30.1217 98.2493
lradius 113.522
lwrist -20.4086
lhand -12.2926 1.84942
lfingers 7.12502
lthumb 13.775 31.3734
rfemur -45.8397 2.60051 16.3266
rtibia 30.8007
rfoot 15.1305 -18.1882
rtoes -23.3063
lfemur 12.8599 -5.55514 -27.4227
ltibia 15.9436
lfoot 43.3479 -4.87584
ltoes 5.72835
127
root 1.48254 16.9199 -23.8803 -167.793 1.08934 -183.963
lowerback -7.44888 -7.51749 -4.40068
upperback -1.44285 -9.63511 1.37806
thorax 3.59384 -4.81284 2.78024
lowerneck -29.6493 2.72632 7.83997
upperneck 45.6774 8.70061 -5.65716
head 29.2743 5.16039 -1.65014
rclavicle -9.06458e-014 -1.17283e-014
rhumerus -80.7991 6.52701 -79.554
rradius 100.451
rwrist 2.59897
rhand -12.2962 -0.372014
rfingers 7.12502
rthumb 13.7715 -29.8962
lclavicle -9.06458e-014 -1.17283e-014
lhumerus -51.802 -30.5621 98.263
lradius 113.893
lwrist -20.1438
lhand -11.9418 1.46467
lfingers 7.12502
lthumb 14.1131 30.9654
rfemur -45.1385 2.9834 15.9219
rtibia 28.3467
rfoot 16.4132 -17.9894
rtoes -24.9727
lfemur 12.6151 -5.9427 -27.6169
ltibia 18.0506
lfoot 43.3053 -4.88003
ltoes 6.32814
128
root 1.50455 16.9104 -24.2859 -167.947 0.982981 -184.166
lowerback -7.63941 -7.55414 -4.41357
upperback -1.38727 -9.66905 1.2794
thorax 3.74496 -4.83081 2.65209
lowerneck -29.7061 2.74555 7.87407
upperneck 45.643 8.64809 -5.63203
head 29.2395 5.14433 -1.65904
rclavicle 1.58282e-014 1.39149e-015
rhumerus -80.9395 6.37564 -79.3693
rradius 100.544
rwrist 2.61429
rhand -12.0696 -0.272621
rfingers 7.12502
rthumb 13.9899 -29.7819
lclavicle 1.58282e-014 1.39149e-015
lhumerus -52.4418 -30.927 98.3333
lradius 114.17
lwrist -19.9129
lhand -11.7184 1.09531
lfingers 7.12502
lthumb 14.3284 30.5809
rfemur -44.4538 3.31683 15.5376
rtibia 26.7117
rfoot 17.3781 -17.7662
rtoes -26.2267
lfemur 12.2944 -6.18215 -27.8872
ltibia 20.5851
lfoot 42.6101 -4.76846
ltoes 6.63742
